<svg width="24" height="24" viewBox="0 0 24 24" fill="none" xmlns="http://www.w3.org/2000/svg">
<path fill-rule="evenodd" clip-rule="evenodd" d="M5.75 7C5.75 5.20507 7.20507 3.75 9 3.75C10.7949 3.75 12.25 5.20507 12.25 7C12.25 8.79493 10.7949 10.25 9 10.25C7.20507 10.25 5.75 8.79493 5.75 7ZM9 2.25C6.37665 2.25 4.25 4.37665 4.25 7C4.25 9.62335 6.37665 11.75 9 11.75C11.6234 11.75 13.75 9.62335 13.75 7C13.75 4.37665 11.6234 2.25 9 2.25ZM5 14.25C3.74022 14.25 2.53204 14.7504 1.64124 15.6412C0.750445 16.532 0.25 17.7402 0.25 19V21C0.25 21.4142 0.585786 21.75 1 21.75C1.41421 21.75 1.75 21.4142 1.75 21V19C1.75 18.138 2.09241 17.3114 2.7019 16.7019C3.3114 16.0924 4.13805 15.75 5 15.75H13C13.862 15.75 14.6886 16.0924 15.2981 16.7019C15.9076 17.3114 16.25 18.138 16.25 19V21C16.25 21.4142 16.5858 21.75 17 21.75C17.4142 21.75 17.75 21.4142 17.75 21V19C17.75 17.7402 17.2496 16.532 16.3588 15.6412C15.468 14.7504 14.2598 14.25 13 14.25H5ZM19.2738 14.9425C19.3774 14.5414 19.7864 14.3003 20.1875 14.4038C21.2065 14.6669 22.1093 15.261 22.7541 16.0928C23.3989 16.9246 23.7492 17.947 23.75 18.9994V19V21C23.75 21.4142 23.4142 21.75 23 21.75C22.5858 21.75 22.25 21.4142 22.25 21V19.0006V19.0003C22.2494 18.2803 22.0097 17.5809 21.5686 17.0118C21.1274 16.4427 20.5097 16.0362 19.8125 15.8562C19.4114 15.7526 19.1703 15.3436 19.2738 14.9425ZM16.186 2.40344C15.7848 2.3007 15.3762 2.54271 15.2734 2.94398C15.1707 3.34524 15.4127 3.75383 15.814 3.85657C16.5131 4.03556 17.1327 4.44214 17.5752 5.01219C18.0177 5.58225 18.2578 6.28337 18.2578 7.005C18.2578 7.72664 18.0177 8.42776 17.5752 8.99781C17.1327 9.56787 16.5131 9.97445 15.814 10.1534C15.4127 10.2562 15.1707 10.6648 15.2734 11.066C15.3762 11.4673 15.7848 11.7093 16.186 11.6066C17.2078 11.345 18.1134 10.7507 18.7601 9.91757C19.4068 9.08441 19.7578 8.05971 19.7578 7.005C19.7578 5.9503 19.4068 4.9256 18.7601 4.09244C18.1134 3.25928 17.2078 2.66505 16.186 2.40344Z" fill="#676771"/>
</svg>
